<?xml version="1.0" encoding="utf-8"?>
<svg xmlns="http://www.w3.org/2000/svg" width="1024" height="1024" viewBox="0 0 1024 1024" xmlns:bx="https://boxy-svg.com"><defs><linearGradient id="gradient_0" gradientUnits="userSpaceOnUse" x1="504.30115" y1="766.31183" x2="514.95416" y2="443.72403" gradientTransform="matrix(1.845877, 0, 0, 1.845877, -460.011322, -432.032379)"><stop offset="0" stop-color="#7452A5"/><stop offset="1" stop-color="#E353A0"/></linearGradient><bx:export><bx:file format="svg" path="Sin título.svg"/></bx:export></defs><path fill="url(#gradient_0)" d="M 74.3 364.742 C 77.85 368.177 73.119 400.538 77.26 408.114 L 78.705 405.312 L 79.837 405.373 L 82.755 409.562 C 93.868 415.351 114.634 395.83 126.785 392.54 C 128.566 394.691 128.428 394.977 131.016 395.756 C 131.645 381.828 130.83 352.471 133.238 339.953 L 133.394 592.538 L 133.363 659.082 C 133.187 721.812 132.132 719.497 187.227 751.38 C 208.564 763.624 229.818 776.014 250.984 788.551 L 391.222 871.906 L 437.404 899.125 C 459.547 912.411 479.241 929.302 506.157 914.602 C 526.066 903.728 545.714 891.933 565.22 880.36 L 668.852 818.784 L 747.142 772.5 C 760.611 764.625 777.661 754.108 790.945 747.216 C 839.556 722.005 837.595 710.81 837.577 660.322 L 837.551 602.736 L 837.618 404.729 C 839.262 401.598 838.833 400.991 841.331 400.007 C 853.277 408.724 851.736 416.425 872.701 414.386 C 881.01 413.578 885.343 408.929 890.568 402.739 L 892.244 402.995 C 896.163 408.627 894.368 410.003 896.639 415.623 C 896.737 416.912 896.803 418.093 896.812 419.391 L 896.718 630.749 L 896.736 694.216 C 896.729 751.623 895.008 755.87 845.155 785.138 L 776.418 824.719 C 714.905 861.358 653.067 897.447 590.908 932.98 C 571.571 944.031 552.338 955.28 533.066 966.445 C 528.747 968.946 522.275 971.926 518.388 974.523 C 479.975 1000.18 447.291 972.206 412.394 951.938 L 325.862 901.606 C 279.102 874.698 232.485 847.542 186.015 820.14 C 166.602 808.872 100.541 773.687 88.684 760.591 C 81.69 752.871 76.642 743.708 75.078 733.408 C 72.48 716.291 73.69 697.904 73.685 680.594 L 73.68 592.816 L 74.102 446.742 C 74.122 421.976 73.069 388.927 74.3 364.742 Z" style=""/><defs><linearGradient id="gradient_1" gradientUnits="userSpaceOnUse" x1="510.48322" y1="465.03665" x2="518.75543" y2="256.228" gradientTransform="matrix(1.845877, 0, 0, 1.845877, -460.011322, -432.032379)"><stop offset="0" stop-color="#DD4F9F"/><stop offset="1" stop-color="#FF66A1"/></linearGradient></defs><path fill="url(#gradient_1)" d="M 74.3 364.742 C 73.989 352.707 73.843 340.666 73.863 328.628 C 73.595 267.158 87.164 265.088 139.261 234.788 C 149.02 229.113 159.85 222.743 169.662 216.904 C 221.73 185.3 274.144 154.271 326.898 123.824 L 420.997 68.19 C 438.114 58.208 461.858 40.574 481.708 39.518 C 489.852 39.085 499.188 39.912 506.487 43.65 C 532.546 57.767 558.177 73.485 583.631 88.631 L 738.935 181.38 C 770.607 200.071 803.222 216.891 834.604 236.691 C 867.214 257.265 898.063 267.493 896.938 312.882 C 896.104 346.566 898.176 381.904 896.639 415.623 C 894.368 410.003 896.163 408.627 892.244 402.995 L 890.568 402.739 C 885.343 408.929 881.01 413.578 872.701 414.386 C 851.736 416.425 853.277 408.724 841.331 400.007 C 838.833 400.991 839.262 401.598 837.618 404.729 L 837.744 363.939 C 837.951 303.577 832.462 302.338 778.761 272.126 C 771.405 267.991 762.472 262.429 755.078 258.018 L 600.523 166.114 L 536.567 127.752 C 526.929 122.009 517.081 116.012 507.462 110.535 C 481.605 95.812 463.205 110.354 441.609 123.537 C 433.672 128.381 425.075 133.314 416.971 138.123 L 306.782 204.035 L 212.512 260.326 C 195.736 270.191 178.745 280.331 162.081 290.287 C 139.417 303.826 133.784 313.572 133.238 339.953 C 130.83 352.471 131.645 381.828 131.016 395.756 C 128.428 394.977 128.566 394.691 126.785 392.54 C 114.634 395.83 93.868 415.351 82.755 409.562 L 79.837 405.373 L 78.705 405.312 L 77.26 408.114 C 73.119 400.538 77.85 368.177 74.3 364.742 Z" style=""/><path d="M 327.109 269.247 C 332.607 272.157 428.257 395.932 439.057 409.722 L 584.487 594.265 C 608.462 624.781 631.825 656.041 656.213 686.251 C 677.153 674.432 697.911 662.291 718.476 649.832 L 718.13 314.295 L 771.917 345.746 L 771.998 679.178 C 730.072 704.791 686.793 728.862 645.077 755.013 L 643.803 755.486 C 640.156 753.802 493.373 565.569 479.063 547.461 L 378.821 420.154 C 357.742 393.495 335.354 366.091 314.858 339.108 C 299.973 346.833 267.589 368.193 252.341 377.667 C 253.047 487.718 253.544 601.699 252.253 711.641 C 234.667 701.255 216.127 690.463 198.928 679.572 L 198.933 346.846 C 207.563 340.949 218.442 334.91 227.544 329.506 C 260.832 309.741 293.665 288.675 327.109 269.247 Z" style=""/><defs><linearGradient id="gradient_2" gradientUnits="userSpaceOnUse" x1="500.08047" y1="694.13727" x2="478.04184" y2="463.15295" gradientTransform="matrix(1.845877, 0, 0, 1.845877, -460.011322, -432.032379)"><stop offset="0" stop-color="#3EC1D6"/><stop offset="1" stop-color="#4BE6E7"/></linearGradient></defs><path fill="url(#gradient_2)" d="M 317.254 430.583 C 322.156 434.603 338.584 457.406 343.687 463.902 L 423.231 565.748 L 537.063 710.127 C 555.601 733.543 578.532 761.082 595.766 784.946 C 582.146 793.235 568.478 801.437 554.759 809.559 C 531.656 823.491 508.342 837.064 484.824 850.281 C 439.199 824.048 394.459 795.664 348.976 769.149 C 338.355 762.957 327.09 756.453 316.955 749.57 L 317.014 551.488 C 317.032 511.607 316.399 470.359 317.254 430.583 Z" style=""/><path fill="#F9599E" d="M 484.706 176.014 C 489.28 177.206 497.716 182.816 501.989 185.389 C 552.449 215.781 603.848 244.911 654.102 275.622 C 654.142 381.015 655.282 489.111 653.982 594.364 C 639.71 575.117 621.877 553.866 606.779 534.689 L 462.908 351.573 C 434.687 315.756 403.286 277.695 375.964 241.491 C 409.736 219.743 449.7 197.483 484.706 176.014 Z" style=""/></svg>